# xmcd CD database file
#
# Track frame offsets:
#	150
#	48160
#	105012
#	158414
#
# Disc length: 2780 seconds
#
# Revision: 1
# Processed by: cddbd v1.4PL0 Copyright (c) Steve Scherf et al.
# Submitted via: CDex 1.51
#
DISCID=190ada04
DTITLE=Roland Sante -  Elfin Paradise
DYEAR=2001
DGENRE=New Age
TTITLE0=the magical forest
TTITLE1=dusk in the mystic garden
TTITLE2=dancing with the nymphs
TTITLE3=elfin dream
EXTD=YEAR: 2001
EXTT0=
EXTT1=
EXTT2=
EXTT3=
PLAYORDER=
